<svg width="88" height="1440" viewBox="0 0 88 1440" fill="none" xmlns="http://www.w3.org/2000/svg">
<mask id="mask0_6_142" style="mask-type:alpha" maskUnits="userSpaceOnUse" x="0" y="0" width="88" height="1440">
<rect x="88.0001" y="3.8466e-06" width="1440" height="88" transform="rotate(90 88.0001 3.8466e-06)" fill="#FF6CB5"/>
</mask>
<g mask="url(#mask0_6_142)">
<rect x="75.0001" y="3.8466e-06" width="1440" height="40" transform="rotate(90 75.0001 3.8466e-06)" fill="#FFFB02"/>
<path d="M24.5001 3.34392e-06C39.8334 12 39.8334 24 24.5001 36C9.16673 48 9.16673 60 24.5001 72C39.8334 84 39.8334 96 24.5001 108C9.16672 120 9.16672 132 24.5001 144C39.8334 156 39.8334 168 24.5001 180C9.16672 192 9.16672 204 24.5001 216C39.8334 228 39.8334 240 24.5001 252C9.16672 264 9.16672 276 24.5001 288C39.8334 300 39.8334 312 24.5 324C9.16671 336 9.16671 348 24.5 360C39.8334 372 39.8334 384 24.5 396C9.16671 408 9.16671 420 24.5 432C39.8334 444 39.8334 456 24.5 468C9.16671 480 9.16671 492 24.5 504C39.8334 516 39.8334 528 24.5 540C9.16671 552 9.1667 564 24.5 576C39.8334 588 39.8334 600 24.5 612C9.1667 624 9.1667 636 24.5 648C39.8334 660 39.8334 672 24.5 684C9.1667 696 9.1667 708 24.5 720C39.8334 732 39.8334 744 24.5 756C9.1667 768 9.1667 780 24.5 792C39.8334 804 39.8334 816 24.5 828C9.16669 840 9.16669 852 24.5 864C39.8334 876 39.8334 888 24.5 900C9.16669 912 9.16669 924 24.5 936C39.8334 948 39.8334 960 24.5 972C9.16669 984 9.16669 996 24.5 1008C39.8334 1020 39.8334 1032 24.5 1044C9.16668 1056 9.16668 1068 24.5 1080C39.8333 1092 39.8333 1104 24.5 1116C9.16668 1128 9.16668 1140 24.5 1152C39.8333 1164 39.8333 1176 24.5 1188C9.16668 1200 9.16668 1212 24.5 1224C39.8333 1236 39.8333 1248 24.5 1260C9.16667 1272 9.16667 1284 24.5 1296C39.8333 1308 39.8333 1320 24.5 1332C9.16667 1344 9.16667 1356 24.5 1368C39.8333 1380 39.8333 1392 24.5 1404C9.16667 1416 9.16667 1428 24.5 1440" stroke="#C16AFF" stroke-width="19" stroke-linecap="square"/>
<path d="M64.5 1386.34C64.5 1396.68 57.8962 1405.13 49.3545 1411.82C42.5632 1417.13 41.5 1420.68 41.5 1422.34C41.5 1423.99 42.5632 1427.54 49.3545 1432.85L56.8359 1438.71L45.126 1453.67L37.6455 1447.82C29.1038 1441.13 22.5 1432.68 22.5 1422.34C22.5 1411.99 29.1038 1403.54 37.6455 1396.85C44.4368 1391.54 45.5 1387.99 45.5 1386.34C45.5 1384.68 44.4368 1381.13 37.6455 1375.82C29.1038 1369.13 22.5 1360.68 22.5 1350.34C22.5 1339.99 29.1038 1331.54 37.6455 1324.85C44.4368 1319.54 45.5 1315.99 45.5 1314.34C45.5 1312.68 44.4368 1309.13 37.6455 1303.82C29.1038 1297.13 22.5 1288.68 22.5 1278.34C22.5 1267.99 29.1038 1259.54 37.6455 1252.85C44.4368 1247.54 45.5 1243.99 45.5 1242.34C45.5 1240.68 44.4368 1237.13 37.6455 1231.82C29.1038 1225.13 22.5 1216.68 22.5 1206.34C22.5 1195.99 29.1038 1187.54 37.6455 1180.85C44.4368 1175.54 45.5 1171.99 45.5 1170.34C45.5 1168.68 44.4368 1165.13 37.6455 1159.82C29.1038 1153.13 22.5 1144.68 22.5 1134.34C22.5 1123.99 29.1038 1115.54 37.6455 1108.85C44.4368 1103.54 45.5 1099.99 45.5 1098.34C45.5 1096.68 44.4368 1093.13 37.6455 1087.82C29.1038 1081.13 22.5 1072.68 22.5 1062.34C22.5 1051.99 29.1038 1043.54 37.6455 1036.85C44.4368 1031.54 45.5 1027.99 45.5 1026.34C45.5 1024.68 44.4368 1021.13 37.6455 1015.82C29.1038 1009.13 22.5 1000.68 22.5 990.336C22.5 979.987 29.1038 971.539 37.6455 964.854C44.4368 959.54 45.5 955.987 45.5 954.336C45.5 952.685 44.4368 949.132 37.6455 943.817C29.1038 937.133 22.5 928.685 22.5 918.336C22.5 907.987 29.1038 899.539 37.6455 892.854C44.4368 887.54 45.5 883.987 45.5 882.336C45.5 880.685 44.4368 877.132 37.6455 871.817C29.1038 865.133 22.5 856.685 22.5 846.336C22.5 835.987 29.1038 827.539 37.6455 820.854C44.4368 815.54 45.5 811.987 45.5 810.336C45.5 808.685 44.4368 805.132 37.6455 799.817C29.1038 793.133 22.5 784.685 22.5 774.336C22.5 763.987 29.1038 755.539 37.6455 748.854C44.4368 743.54 45.5 739.987 45.5 738.336C45.5 736.685 44.4368 733.132 37.6455 727.817C29.1038 721.133 22.5 712.685 22.5 702.336C22.5 691.987 29.1038 683.539 37.6455 676.854C44.4368 671.54 45.5 667.987 45.5 666.336C45.5 664.685 44.4368 661.132 37.6455 655.817C29.1038 649.133 22.5 640.685 22.5 630.336C22.5 619.987 29.1038 611.539 37.6455 604.854C44.4368 599.54 45.5 595.987 45.5 594.336C45.5 592.685 44.4368 589.132 37.6455 583.817C29.1038 577.133 22.5 568.685 22.5 558.336C22.5 547.987 29.1038 539.539 37.6455 532.854C44.4369 527.54 45.5 523.987 45.5 522.336C45.5 520.685 44.4368 517.132 37.6455 511.817C29.1038 505.133 22.5 496.685 22.5 486.336C22.5 475.987 29.1038 467.539 37.6456 460.854C44.4368 455.539 45.5 451.987 45.5 450.336C45.5 448.685 44.4368 445.132 37.6456 439.817C29.1038 433.133 22.5 424.685 22.5 414.336C22.5 403.987 29.1038 395.539 37.6456 388.854C44.4368 383.539 45.5 379.987 45.5 378.336C45.5 376.685 44.4368 373.132 37.6456 367.817C29.1038 361.133 22.5 352.685 22.5 342.336C22.5 331.987 29.1038 323.539 37.6456 316.854C44.4368 311.539 45.5 307.987 45.5 306.336C45.5 304.685 44.4368 301.132 37.6456 295.817C29.1038 289.133 22.5001 280.685 22.5001 270.336C22.5001 259.987 29.1038 251.539 37.6456 244.854C44.4369 239.539 45.5001 235.987 45.5001 234.336C45.5001 232.685 44.4369 229.132 37.6456 223.817C29.1038 217.133 22.5001 208.685 22.5001 198.336C22.5001 187.987 29.1038 179.539 37.6456 172.854C44.4369 167.539 45.5001 163.987 45.5001 162.336C45.5001 160.685 44.4369 157.132 37.6456 151.817C29.1038 145.133 22.5001 136.685 22.5001 126.336C22.5001 115.987 29.1038 107.539 37.6456 100.854C44.4369 95.5395 45.5001 91.9869 45.5001 90.3359C45.5001 88.6849 44.4369 85.1324 37.6456 79.8174C29.1038 73.1325 22.5001 64.6849 22.5001 54.3359C22.5001 43.987 29.1038 35.5393 37.6456 28.8545C44.4369 23.5395 45.5001 19.9869 45.5001 18.3359C45.5001 16.6849 44.4369 13.1324 37.6456 7.81739L30.1641 1.96192L41.8741 -13L49.3546 -7.1455C57.8963 -0.460669 64.5001 7.98697 64.5001 18.3359C64.5001 28.6849 57.8963 37.1326 49.3546 43.8174C42.5633 49.1324 41.5001 52.6849 41.5001 54.3359C41.5001 55.9869 42.5633 59.5395 49.3546 64.8545C57.8963 71.5393 64.5001 79.987 64.5001 90.3359C64.5001 100.685 57.8963 109.133 49.3545 115.817C42.5633 121.132 41.5001 124.685 41.5001 126.336C41.5001 127.987 42.5633 131.539 49.3545 136.854C57.8963 143.539 64.5001 151.987 64.5001 162.336C64.5001 172.685 57.8963 181.133 49.3545 187.817C42.5633 193.132 41.5001 196.685 41.5001 198.336C41.5001 199.987 42.5633 203.539 49.3545 208.854C57.8963 215.539 64.5001 223.987 64.5001 234.336C64.5001 244.685 57.8963 253.133 49.3545 259.817C42.5633 265.132 41.5001 268.685 41.5001 270.336C41.5001 271.987 42.5633 275.539 49.3545 280.854C57.8963 287.539 64.5 295.987 64.5 306.336C64.5 316.685 57.8963 325.133 49.3545 331.817C42.5632 337.132 41.5 340.685 41.5 342.336C41.5 343.987 42.5632 347.539 49.3545 352.854C57.8963 359.539 64.5 367.987 64.5 378.336C64.5 388.685 57.8963 397.133 49.3545 403.817C42.5632 409.132 41.5 412.685 41.5 414.336C41.5 415.987 42.5632 419.539 49.3545 424.854C57.8963 431.539 64.5 439.987 64.5 450.336C64.5 460.685 57.8963 469.133 49.3545 475.817C42.5632 481.132 41.5 484.685 41.5 486.336C41.5 487.987 42.5632 491.539 49.3545 496.854C57.8963 503.539 64.5 511.987 64.5 522.336C64.5 532.685 57.8963 541.133 49.3545 547.817C42.5632 553.132 41.5 556.685 41.5 558.336C41.5 559.987 42.5632 563.54 49.3545 568.854C57.8963 575.539 64.5 583.987 64.5 594.336C64.5 604.685 57.8963 613.133 49.3545 619.817C42.5632 625.132 41.5 628.685 41.5 630.336C41.5 631.987 42.5632 635.54 49.3545 640.854C57.8963 647.539 64.5 655.987 64.5 666.336C64.5 676.685 57.8963 685.133 49.3545 691.817C42.5632 697.132 41.5 700.685 41.5 702.336C41.5 703.987 42.5632 707.54 49.3545 712.854C57.8963 719.539 64.5 727.987 64.5 738.336C64.5 748.685 57.8963 757.133 49.3545 763.817C42.5632 769.132 41.5 772.685 41.5 774.336C41.5 775.987 42.5632 779.54 49.3545 784.854C57.8963 791.539 64.5 799.987 64.5 810.336C64.5 820.685 57.8963 829.133 49.3545 835.817C42.5632 841.132 41.5 844.685 41.5 846.336C41.5 847.987 42.5632 851.54 49.3545 856.854C57.8963 863.539 64.5 871.987 64.5 882.336C64.5 892.685 57.8962 901.133 49.3545 907.817C42.5632 913.132 41.5 916.685 41.5 918.336C41.5 919.987 42.5632 923.54 49.3545 928.854C57.8962 935.539 64.5 943.987 64.5 954.336C64.5 964.685 57.8962 973.133 49.3545 979.817C42.5632 985.132 41.5 988.685 41.5 990.336C41.5 991.987 42.5632 995.54 49.3545 1000.85C57.8962 1007.54 64.5 1015.99 64.5 1026.34C64.5 1036.68 57.8962 1045.13 49.3545 1051.82C42.5632 1057.13 41.5 1060.68 41.5 1062.34C41.5 1063.99 42.5632 1067.54 49.3545 1072.85C57.8962 1079.54 64.5 1087.99 64.5 1098.34C64.5 1108.68 57.8962 1117.13 49.3545 1123.82C42.5632 1129.13 41.5 1132.68 41.5 1134.34C41.5 1135.99 42.5632 1139.54 49.3545 1144.85C57.8962 1151.54 64.5 1159.99 64.5 1170.34C64.5 1180.68 57.8962 1189.13 49.3545 1195.82C42.5632 1201.13 41.5 1204.68 41.5 1206.34C41.5 1207.99 42.5632 1211.54 49.3545 1216.85C57.8962 1223.54 64.5 1231.99 64.5 1242.34C64.5 1252.68 57.8962 1261.13 49.3545 1267.82C42.5632 1273.13 41.5 1276.68 41.5 1278.34C41.5 1279.99 42.5632 1283.54 49.3545 1288.85C57.8962 1295.54 64.5 1303.99 64.5 1314.34C64.5 1324.68 57.8962 1333.13 49.3545 1339.82C42.5632 1345.13 41.5 1348.68 41.5 1350.34C41.5 1351.99 42.5632 1355.54 49.3545 1360.85C57.8962 1367.54 64.5 1375.99 64.5 1386.34Z" fill="#FFFB02"/>
</g>
</svg>
