<svg width="1440" height="88" viewBox="0 0 1440 88" fill="none" xmlns="http://www.w3.org/2000/svg">
<mask id="mask0_6_144" style="mask-type:alpha" maskUnits="userSpaceOnUse" x="0" y="0" width="1440" height="89">
<rect x="1440" y="88.0001" width="1440" height="88" transform="rotate(-180 1440 88.0001)" fill="#FF6CB5"/>
</mask>
<g mask="url(#mask0_6_144)">
<rect x="1440" y="75.0001" width="1440" height="40" transform="rotate(-180 1440 75.0001)" fill="#6CAEFF"/>
<path d="M1440 24.5001C1428 39.8335 1416 39.8335 1404 24.5001C1392 9.16679 1380 9.16679 1368 24.5001C1356 39.8335 1344 39.8335 1332 24.5001C1320 9.16678 1308 9.16678 1296 24.5001C1284 39.8334 1272 39.8334 1260 24.5001C1248 9.16678 1236 9.16677 1224 24.5001C1212 39.8334 1200 39.8334 1188 24.5001C1176 9.16677 1164 9.16677 1152 24.5001C1140 39.8334 1128 39.8334 1116 24.5001C1104 9.16676 1092 9.16676 1080 24.5001C1068 39.8334 1056 39.8334 1044 24.5001C1032 9.16676 1020 9.16676 1008 24.5001C996 39.8334 984 39.8334 972 24.5001C960 9.16675 948 9.16675 936 24.5001C924 39.8334 912 39.8334 900 24.5001C888 9.16674 876 9.16674 864 24.5001C852 39.8334 840 39.8334 828 24.5001C816 9.16674 804 9.16674 792 24.5001C780 39.8334 768 39.8334 756 24.5001C744 9.16673 732 9.16673 720 24.5001C708 39.8334 696 39.8334 684 24.5001C672 9.16673 660 9.16672 648 24.5001C636 39.8334 624 39.8334 612 24.5001C600 9.16672 588 9.16672 576 24.5001C564 39.8334 552 39.8334 540 24.5C528 9.16671 516 9.16671 504 24.5C492 39.8334 480 39.8334 468 24.5C456 9.16671 444 9.16671 432 24.5C420 39.8334 408 39.8334 396 24.5C384 9.1667 372 9.1667 360 24.5C348 39.8334 336 39.8334 324 24.5C312 9.16669 300 9.16669 288 24.5C276 39.8334 264 39.8334 252 24.5C240 9.16669 228 9.16669 216 24.5C204 39.8334 192 39.8334 180 24.5C168 9.16668 156 9.16668 144 24.5C132 39.8333 120 39.8333 108 24.5C96 9.16667 84 9.16667 72 24.5C60 39.8333 48 39.8333 36 24.5C24 9.16667 12 9.16667 2.00788e-05 24.5" stroke="#48F742" stroke-width="19" stroke-linecap="square"/>
<path d="M53.6641 64.5C43.3151 64.5 34.8674 57.8962 28.1826 49.3545C22.8676 42.5632 19.315 41.5 17.6641 41.5C16.0131 41.5 12.4606 42.5632 7.14551 49.3545L1.29004 56.8359L-13.6719 45.126L-7.81738 37.6455C-1.13257 29.1038 7.31507 22.5 17.6641 22.5C28.0131 22.5 36.4607 29.1038 43.1455 37.6455C48.4606 44.4368 52.0131 45.5 53.6641 45.5C55.315 45.5 58.8676 44.4368 64.1826 37.6455C70.8674 29.1038 79.3151 22.5 89.6641 22.5C100.013 22.5 108.461 29.1038 115.146 37.6455C120.461 44.4368 124.013 45.5 125.664 45.5C127.315 45.5 130.868 44.4368 136.183 37.6455C142.867 29.1038 151.315 22.5 161.664 22.5C172.013 22.5 180.461 29.1038 187.146 37.6455C192.461 44.4368 196.013 45.5 197.664 45.5C199.315 45.5 202.868 44.4368 208.183 37.6455C214.867 29.1038 223.315 22.5 233.664 22.5C244.013 22.5 252.461 29.1038 259.146 37.6455C264.461 44.4368 268.013 45.5 269.664 45.5C271.315 45.5 274.868 44.4368 280.183 37.6455C286.867 29.1038 295.315 22.5 305.664 22.5C316.013 22.5 324.461 29.1038 331.146 37.6455C336.461 44.4368 340.013 45.5 341.664 45.5C343.315 45.5 346.868 44.4368 352.183 37.6455C358.867 29.1038 367.315 22.5 377.664 22.5C388.013 22.5 396.461 29.1038 403.146 37.6455C408.461 44.4368 412.013 45.5 413.664 45.5C415.315 45.5 418.868 44.4368 424.183 37.6455C430.867 29.1038 439.315 22.5 449.664 22.5C460.013 22.5 468.461 29.1038 475.146 37.6455C480.46 44.4369 484.013 45.5 485.664 45.5C487.315 45.5 490.868 44.4369 496.183 37.6456C502.867 29.1038 511.315 22.5 521.664 22.5C532.013 22.5 540.461 29.1038 547.146 37.6456C552.46 44.4369 556.013 45.5 557.664 45.5C559.315 45.5 562.868 44.4369 568.183 37.6456C574.867 29.1038 583.315 22.5 593.664 22.5001C604.013 22.5001 612.461 29.1038 619.146 37.6456C624.46 44.4369 628.013 45.5001 629.664 45.5001C631.315 45.5001 634.868 44.4369 640.183 37.6456C646.867 29.1038 655.315 22.5001 665.664 22.5001C676.013 22.5001 684.461 29.1038 691.146 37.6456C696.46 44.4369 700.013 45.5001 701.664 45.5001C703.315 45.5001 706.868 44.4369 712.183 37.6456C718.867 29.1038 727.315 22.5001 737.664 22.5001C748.013 22.5001 756.461 29.1038 763.146 37.6456C768.46 44.4369 772.013 45.5001 773.664 45.5001C775.315 45.5001 778.868 44.4369 784.183 37.6456C790.867 29.1038 799.315 22.5001 809.664 22.5001C820.013 22.5001 828.461 29.1038 835.146 37.6456C840.46 44.4369 844.013 45.5001 845.664 45.5001C847.315 45.5001 850.868 44.4369 856.183 37.6456C862.867 29.1038 871.315 22.5001 881.664 22.5001C892.013 22.5001 900.461 29.1039 907.146 37.6456C912.46 44.4369 916.013 45.5001 917.664 45.5001C919.315 45.5001 922.868 44.4369 928.183 37.6456C934.867 29.1039 943.315 22.5001 953.664 22.5001C964.013 22.5001 972.461 29.1039 979.146 37.6456C984.461 44.4369 988.013 45.5001 989.664 45.5001C991.315 45.5001 994.868 44.4369 1000.18 37.6456C1006.87 29.1039 1015.32 22.5001 1025.66 22.5001C1036.01 22.5001 1044.46 29.1039 1051.15 37.6456C1056.46 44.4369 1060.01 45.5001 1061.66 45.5001C1063.32 45.5001 1066.87 44.4369 1072.18 37.6456C1078.87 29.1039 1087.32 22.5001 1097.66 22.5001C1108.01 22.5001 1116.46 29.1039 1123.15 37.6456C1128.46 44.4369 1132.01 45.5001 1133.66 45.5001C1135.32 45.5001 1138.87 44.4369 1144.18 37.6456C1150.87 29.1039 1159.32 22.5001 1169.66 22.5001C1180.01 22.5001 1188.46 29.1039 1195.15 37.6456C1200.46 44.4369 1204.01 45.5001 1205.66 45.5001C1207.32 45.5001 1210.87 44.4369 1216.18 37.6456C1222.87 29.1039 1231.32 22.5001 1241.66 22.5001C1252.01 22.5001 1260.46 29.1039 1267.15 37.6456C1272.46 44.4369 1276.01 45.5001 1277.66 45.5001C1279.32 45.5001 1282.87 44.4369 1288.18 37.6456C1294.87 29.1039 1303.32 22.5001 1313.66 22.5001C1324.01 22.5001 1332.46 29.1039 1339.15 37.6456C1344.46 44.4369 1348.01 45.5001 1349.66 45.5001C1351.32 45.5001 1354.87 44.4369 1360.18 37.6456C1366.87 29.1039 1375.32 22.5001 1385.66 22.5001C1396.01 22.5001 1404.46 29.1039 1411.15 37.6456C1416.46 44.4369 1420.01 45.5001 1421.66 45.5001C1423.32 45.5001 1426.87 44.4369 1432.18 37.6456L1438.04 30.1642L1453 41.8741L1447.15 49.3546C1440.46 57.8964 1432.01 64.5001 1421.66 64.5001C1411.32 64.5001 1402.87 57.8963 1396.18 49.3546C1390.87 42.5633 1387.32 41.5001 1385.66 41.5001C1384.01 41.5001 1380.46 42.5633 1375.15 49.3546C1368.46 57.8963 1360.01 64.5001 1349.66 64.5001C1339.32 64.5001 1330.87 57.8963 1324.18 49.3546C1318.87 42.5633 1315.32 41.5001 1313.66 41.5001C1312.01 41.5001 1308.46 42.5633 1303.15 49.3546C1296.46 57.8963 1288.01 64.5001 1277.66 64.5001C1267.32 64.5001 1258.87 57.8963 1252.18 49.3546C1246.87 42.5633 1243.32 41.5001 1241.66 41.5001C1240.01 41.5001 1236.46 42.5633 1231.15 49.3546C1224.46 57.8963 1216.01 64.5001 1205.66 64.5001C1195.32 64.5001 1186.87 57.8963 1180.18 49.3546C1174.87 42.5633 1171.32 41.5001 1169.66 41.5001C1168.01 41.5001 1164.46 42.5633 1159.15 49.3546C1152.46 57.8963 1144.01 64.5001 1133.66 64.5001C1123.32 64.5001 1114.87 57.8963 1108.18 49.3546C1102.87 42.5633 1099.32 41.5001 1097.66 41.5001C1096.01 41.5001 1092.46 42.5633 1087.15 49.3546C1080.46 57.8963 1072.01 64.5001 1061.66 64.5001C1051.32 64.5001 1042.87 57.8963 1036.18 49.3546C1030.87 42.5633 1027.32 41.5001 1025.66 41.5001C1024.01 41.5001 1020.46 42.5633 1015.15 49.3546C1008.46 57.8963 1000.01 64.5001 989.664 64.5001C979.315 64.5001 970.867 57.8963 964.183 49.3546C958.868 42.5633 955.315 41.5001 953.664 41.5001C952.013 41.5001 948.461 42.5633 943.146 49.3546C936.461 57.8963 928.013 64.5001 917.664 64.5001C907.315 64.5001 898.867 57.8963 892.183 49.3546C886.868 42.5633 883.315 41.5001 881.664 41.5001C880.013 41.5001 876.46 42.5633 871.146 49.3546C864.461 57.8963 856.013 64.5001 845.664 64.5001C835.315 64.5001 826.867 57.8963 820.183 49.3546C814.868 42.5633 811.315 41.5001 809.664 41.5001C808.013 41.5001 804.46 42.5633 799.146 49.3546C792.461 57.8963 784.013 64.5001 773.664 64.5001C763.315 64.5001 754.867 57.8963 748.183 49.3546C742.868 42.5633 739.315 41.5001 737.664 41.5001C736.013 41.5001 732.46 42.5633 727.146 49.3546C720.461 57.8963 712.013 64.5001 701.664 64.5001C691.315 64.5001 682.867 57.8963 676.183 49.3546C670.868 42.5632 667.315 41.5001 665.664 41.5001C664.013 41.5001 660.46 42.5632 655.146 49.3545C648.461 57.8963 640.013 64.5001 629.664 64.5001C619.315 64.5001 610.867 57.8963 604.183 49.3545C598.868 42.5632 595.315 41.5001 593.664 41.5001C592.013 41.5001 588.46 42.5632 583.146 49.3545C576.461 57.8963 568.013 64.5 557.664 64.5C547.315 64.5 538.867 57.8963 532.183 49.3545C526.868 42.5632 523.315 41.5 521.664 41.5C520.013 41.5 516.46 42.5632 511.146 49.3545C504.461 57.8963 496.013 64.5 485.664 64.5C475.315 64.5 466.867 57.8963 460.183 49.3545C454.868 42.5632 451.315 41.5 449.664 41.5C448.013 41.5 444.46 42.5632 439.146 49.3545C432.461 57.8963 424.013 64.5 413.664 64.5C403.315 64.5 394.867 57.8963 388.183 49.3545C382.868 42.5632 379.315 41.5 377.664 41.5C376.013 41.5 372.461 42.5632 367.146 49.3545C360.461 57.8963 352.013 64.5 341.664 64.5C331.315 64.5 322.867 57.8963 316.183 49.3545C310.868 42.5632 307.315 41.5 305.664 41.5C304.013 41.5 300.461 42.5632 295.146 49.3545C288.461 57.8963 280.013 64.5 269.664 64.5C259.315 64.5 250.867 57.8962 244.183 49.3545C238.868 42.5632 235.315 41.5 233.664 41.5C232.013 41.5 228.461 42.5632 223.146 49.3545C216.461 57.8962 208.013 64.5 197.664 64.5C187.315 64.5 178.867 57.8962 172.183 49.3545C166.868 42.5632 163.315 41.5 161.664 41.5C160.013 41.5 156.461 42.5632 151.146 49.3545C144.461 57.8962 136.013 64.5 125.664 64.5C115.315 64.5 106.867 57.8962 100.183 49.3545C94.8676 42.5632 91.315 41.5 89.6641 41.5C88.0131 41.5 84.4606 42.5632 79.1455 49.3545C72.4607 57.8962 64.0131 64.5 53.6641 64.5Z" fill="#6CAEFF"/>
</g>
</svg>
