<svg width="1440" height="88" viewBox="0 0 1440 88" fill="none" xmlns="http://www.w3.org/2000/svg">
<mask id="mask0_6_141" style="mask-type:alpha" maskUnits="userSpaceOnUse" x="0" y="0" width="1440" height="88">
<rect width="1440" height="88" fill="#FF6CB5"/>
</mask>
<g mask="url(#mask0_6_141)">
<rect y="13" width="1440" height="40" fill="#FF88DB"/>
<path d="M0 63.5C12 48.1667 24 48.1667 36 63.5C48 78.8333 60 78.8333 72 63.5C84 48.1667 96 48.1667 108 63.5C120 78.8333 132 78.8333 144 63.5C156 48.1667 168 48.1667 180 63.5C192 78.8333 204 78.8333 216 63.5C228 48.1667 240 48.1667 252 63.5C264 78.8333 276 78.8333 288 63.5C300 48.1667 312 48.1667 324 63.5C336 78.8333 348 78.8333 360 63.5C372 48.1667 384 48.1667 396 63.5C408 78.8333 420 78.8333 432 63.5C444 48.1667 456 48.1667 468 63.5C480 78.8333 492 78.8333 504 63.5C516 48.1667 528 48.1667 540 63.5C552 78.8333 564 78.8333 576 63.5C588 48.1667 600 48.1667 612 63.5C624 78.8333 636 78.8333 648 63.5C660 48.1667 672 48.1667 684 63.5C696 78.8333 708 78.8333 720 63.5C732 48.1667 744 48.1667 756 63.5C768 78.8333 780 78.8333 792 63.5C804 48.1667 816 48.1667 828 63.5C840 78.8333 852 78.8333 864 63.5C876 48.1667 888 48.1667 900 63.5C912 78.8333 924 78.8333 936 63.5C948 48.1667 960 48.1667 972 63.5C984 78.8333 996 78.8333 1008 63.5C1020 48.1667 1032 48.1667 1044 63.5C1056 78.8333 1068 78.8333 1080 63.5C1092 48.1667 1104 48.1667 1116 63.5C1128 78.8333 1140 78.8333 1152 63.5C1164 48.1667 1176 48.1667 1188 63.5C1200 78.8333 1212 78.8333 1224 63.5C1236 48.1667 1248 48.1667 1260 63.5C1272 78.8333 1284 78.8333 1296 63.5C1308 48.1667 1320 48.1667 1332 63.5C1344 78.8333 1356 78.8333 1368 63.5C1380 48.1667 1392 48.1667 1404 63.5C1416 78.8333 1428 78.8333 1440 63.5" stroke="#4C75F2" stroke-width="19" stroke-linecap="square"/>
<path d="M1386.34 23.5C1396.68 23.5 1405.13 30.1038 1411.82 38.6455C1417.13 45.4368 1420.68 46.5 1422.34 46.5C1423.99 46.5 1427.54 45.4368 1432.85 38.6455L1438.71 31.1641L1453.67 42.874L1447.82 50.3545C1441.13 58.8962 1432.68 65.5 1422.34 65.5C1411.99 65.5 1403.54 58.8962 1396.85 50.3545C1391.54 43.5632 1387.99 42.5 1386.34 42.5C1384.68 42.5 1381.13 43.5632 1375.82 50.3545C1369.13 58.8962 1360.68 65.5 1350.34 65.5C1339.99 65.5 1331.54 58.8962 1324.85 50.3545C1319.54 43.5632 1315.99 42.5 1314.34 42.5C1312.68 42.5 1309.13 43.5632 1303.82 50.3545C1297.13 58.8962 1288.68 65.5 1278.34 65.5C1267.99 65.5 1259.54 58.8962 1252.85 50.3545C1247.54 43.5632 1243.99 42.5 1242.34 42.5C1240.68 42.5 1237.13 43.5632 1231.82 50.3545C1225.13 58.8962 1216.68 65.5 1206.34 65.5C1195.99 65.5 1187.54 58.8962 1180.85 50.3545C1175.54 43.5632 1171.99 42.5 1170.34 42.5C1168.68 42.5 1165.13 43.5632 1159.82 50.3545C1153.13 58.8962 1144.68 65.5 1134.34 65.5C1123.99 65.5 1115.54 58.8962 1108.85 50.3545C1103.54 43.5632 1099.99 42.5 1098.34 42.5C1096.68 42.5 1093.13 43.5632 1087.82 50.3545C1081.13 58.8962 1072.68 65.5 1062.34 65.5C1051.99 65.5 1043.54 58.8962 1036.85 50.3545C1031.54 43.5632 1027.99 42.5 1026.34 42.5C1024.68 42.5 1021.13 43.5632 1015.82 50.3545C1009.13 58.8962 1000.68 65.5 990.336 65.5C979.987 65.5 971.539 58.8962 964.854 50.3545C959.54 43.5632 955.987 42.5 954.336 42.5C952.685 42.5 949.132 43.5632 943.817 50.3545C937.133 58.8962 928.685 65.5 918.336 65.5C907.987 65.5 899.539 58.8962 892.854 50.3545C887.54 43.5632 883.987 42.5 882.336 42.5C880.685 42.5 877.132 43.5632 871.817 50.3545C865.133 58.8962 856.685 65.5 846.336 65.5C835.987 65.5 827.539 58.8962 820.854 50.3545C815.54 43.5632 811.987 42.5 810.336 42.5C808.685 42.5 805.132 43.5632 799.817 50.3545C793.133 58.8962 784.685 65.5 774.336 65.5C763.987 65.5 755.539 58.8962 748.854 50.3545C743.54 43.5632 739.987 42.5 738.336 42.5C736.685 42.5 733.132 43.5632 727.817 50.3545C721.133 58.8962 712.685 65.5 702.336 65.5C691.987 65.5 683.539 58.8962 676.854 50.3545C671.54 43.5632 667.987 42.5 666.336 42.5C664.685 42.5 661.132 43.5632 655.817 50.3545C649.133 58.8962 640.685 65.5 630.336 65.5C619.987 65.5 611.539 58.8962 604.854 50.3545C599.54 43.5632 595.987 42.5 594.336 42.5C592.685 42.5 589.132 43.5632 583.817 50.3545C577.133 58.8962 568.685 65.5 558.336 65.5C547.987 65.5 539.539 58.8962 532.854 50.3545C527.54 43.5632 523.987 42.5 522.336 42.5C520.685 42.5 517.132 43.5632 511.817 50.3545C505.133 58.8962 496.685 65.5 486.336 65.5C475.987 65.5 467.539 58.8962 460.854 50.3545C455.539 43.5632 451.987 42.5 450.336 42.5C448.685 42.5 445.132 43.5632 439.817 50.3545C433.133 58.8962 424.685 65.5 414.336 65.5C403.987 65.5 395.539 58.8962 388.854 50.3545C383.539 43.5632 379.987 42.5 378.336 42.5C376.685 42.5 373.132 43.5632 367.817 50.3545C361.133 58.8962 352.685 65.5 342.336 65.5C331.987 65.5 323.539 58.8962 316.854 50.3545C311.539 43.5632 307.987 42.5 306.336 42.5C304.685 42.5 301.132 43.5632 295.817 50.3545C289.133 58.8962 280.685 65.5 270.336 65.5C259.987 65.5 251.539 58.8962 244.854 50.3545C239.539 43.5632 235.987 42.5 234.336 42.5C232.685 42.5 229.132 43.5632 223.817 50.3545C217.133 58.8962 208.685 65.5 198.336 65.5C187.987 65.5 179.539 58.8962 172.854 50.3545C167.539 43.5632 163.987 42.5 162.336 42.5C160.685 42.5 157.132 43.5632 151.817 50.3545C145.133 58.8962 136.685 65.5 126.336 65.5C115.987 65.5 107.539 58.8962 100.854 50.3545C95.5395 43.5632 91.9869 42.5 90.3359 42.5C88.6849 42.5 85.1324 43.5632 79.8174 50.3545C73.1325 58.8962 64.6849 65.5 54.3359 65.5C43.987 65.5 35.5393 58.8962 28.8545 50.3545C23.5395 43.5632 19.9869 42.5 18.3359 42.5C16.6849 42.5 13.1324 43.5632 7.81738 50.3545L1.96191 57.8359L-13 46.126L-7.14551 38.6455C-0.460673 30.1038 7.98697 23.5 18.3359 23.5C28.6849 23.5 37.1325 30.1038 43.8174 38.6455C49.1324 45.4368 52.6849 46.5 54.3359 46.5C55.9869 46.5 59.5395 45.4368 64.8545 38.6455C71.5393 30.1038 79.987 23.5 90.3359 23.5C100.685 23.5 109.133 30.1038 115.817 38.6455C121.132 45.4368 124.685 46.5 126.336 46.5C127.987 46.5 131.539 45.4368 136.854 38.6455C143.539 30.1038 151.987 23.5 162.336 23.5C172.685 23.5 181.133 30.1038 187.817 38.6455C193.132 45.4368 196.685 46.5 198.336 46.5C199.987 46.5 203.539 45.4368 208.854 38.6455C215.539 30.1038 223.987 23.5 234.336 23.5C244.685 23.5 253.133 30.1038 259.817 38.6455C265.132 45.4368 268.685 46.5 270.336 46.5C271.987 46.5 275.539 45.4368 280.854 38.6455C287.539 30.1038 295.987 23.5 306.336 23.5C316.685 23.5 325.133 30.1038 331.817 38.6455C337.132 45.4368 340.685 46.5 342.336 46.5C343.987 46.5 347.539 45.4368 352.854 38.6455C359.539 30.1038 367.987 23.5 378.336 23.5C388.685 23.5 397.133 30.1038 403.817 38.6455C409.132 45.4368 412.685 46.5 414.336 46.5C415.987 46.5 419.539 45.4368 424.854 38.6455C431.539 30.1038 439.987 23.5 450.336 23.5C460.685 23.5 469.133 30.1038 475.817 38.6455C481.132 45.4368 484.685 46.5 486.336 46.5C487.987 46.5 491.539 45.4368 496.854 38.6455C503.539 30.1038 511.987 23.5 522.336 23.5C532.685 23.5 541.133 30.1038 547.817 38.6455C553.132 45.4368 556.685 46.5 558.336 46.5C559.987 46.5 563.54 45.4368 568.854 38.6455C575.539 30.1038 583.987 23.5 594.336 23.5C604.685 23.5 613.133 30.1038 619.817 38.6455C625.132 45.4368 628.685 46.5 630.336 46.5C631.987 46.5 635.54 45.4368 640.854 38.6455C647.539 30.1038 655.987 23.5 666.336 23.5C676.685 23.5 685.133 30.1038 691.817 38.6455C697.132 45.4368 700.685 46.5 702.336 46.5C703.987 46.5 707.54 45.4368 712.854 38.6455C719.539 30.1038 727.987 23.5 738.336 23.5C748.685 23.5 757.133 30.1038 763.817 38.6455C769.132 45.4368 772.685 46.5 774.336 46.5C775.987 46.5 779.54 45.4368 784.854 38.6455C791.539 30.1038 799.987 23.5 810.336 23.5C820.685 23.5 829.133 30.1038 835.817 38.6455C841.132 45.4368 844.685 46.5 846.336 46.5C847.987 46.5 851.54 45.4368 856.854 38.6455C863.539 30.1038 871.987 23.5 882.336 23.5C892.685 23.5 901.133 30.1038 907.817 38.6455C913.132 45.4368 916.685 46.5 918.336 46.5C919.987 46.5 923.54 45.4368 928.854 38.6455C935.539 30.1038 943.987 23.5 954.336 23.5C964.685 23.5 973.133 30.1038 979.817 38.6455C985.132 45.4368 988.685 46.5 990.336 46.5C991.987 46.5 995.54 45.4368 1000.85 38.6455C1007.54 30.1038 1015.99 23.5 1026.34 23.5C1036.68 23.5 1045.13 30.1038 1051.82 38.6455C1057.13 45.4368 1060.68 46.5 1062.34 46.5C1063.99 46.5 1067.54 45.4368 1072.85 38.6455C1079.54 30.1038 1087.99 23.5 1098.34 23.5C1108.68 23.5 1117.13 30.1038 1123.82 38.6455C1129.13 45.4368 1132.68 46.5 1134.34 46.5C1135.99 46.5 1139.54 45.4368 1144.85 38.6455C1151.54 30.1038 1159.99 23.5 1170.34 23.5C1180.68 23.5 1189.13 30.1038 1195.82 38.6455C1201.13 45.4368 1204.68 46.5 1206.34 46.5C1207.99 46.5 1211.54 45.4368 1216.85 38.6455C1223.54 30.1038 1231.99 23.5 1242.34 23.5C1252.68 23.5 1261.13 30.1038 1267.82 38.6455C1273.13 45.4368 1276.68 46.5 1278.34 46.5C1279.99 46.5 1283.54 45.4368 1288.85 38.6455C1295.54 30.1038 1303.99 23.5 1314.34 23.5C1324.68 23.5 1333.13 30.1038 1339.82 38.6455C1345.13 45.4368 1348.68 46.5 1350.34 46.5C1351.99 46.5 1355.54 45.4368 1360.85 38.6455C1367.54 30.1038 1375.99 23.5 1386.34 23.5Z" fill="#FF88DB"/>
</g>
</svg>
