<svg width="88" height="1440" viewBox="0 0 88 1440" fill="none" xmlns="http://www.w3.org/2000/svg">
<mask id="mask0_6_143" style="mask-type:alpha" maskUnits="userSpaceOnUse" x="0" y="0" width="88" height="1440">
<rect y="1440" width="1440" height="88" transform="rotate(-90 0 1440)" fill="#FF6CB5"/>
</mask>
<g mask="url(#mask0_6_143)">
<rect x="13" y="1440" width="1440" height="40" transform="rotate(-90 13 1440)" fill="#68F7CC"/>
<path d="M63.5 1440C48.1667 1428 48.1667 1416 63.5 1404C78.8333 1392 78.8333 1380 63.5 1368C48.1667 1356 48.1667 1344 63.5 1332C78.8333 1320 78.8333 1308 63.5 1296C48.1667 1284 48.1667 1272 63.5 1260C78.8333 1248 78.8333 1236 63.5 1224C48.1667 1212 48.1667 1200 63.5 1188C78.8333 1176 78.8333 1164 63.5 1152C48.1667 1140 48.1667 1128 63.5 1116C78.8333 1104 78.8333 1092 63.5 1080C48.1667 1068 48.1667 1056 63.5 1044C78.8333 1032 78.8333 1020 63.5 1008C48.1667 996 48.1667 984 63.5 972C78.8333 960 78.8333 948 63.5 936C48.1667 924 48.1667 912 63.5 900C78.8333 888 78.8333 876 63.5 864C48.1667 852 48.1667 840 63.5 828C78.8333 816 78.8333 804 63.5 792C48.1667 780 48.1667 768 63.5 756C78.8333 744 78.8333 732 63.5 720C48.1667 708 48.1667 696 63.5 684C78.8333 672 78.8333 660 63.5 648C48.1667 636 48.1667 624 63.5 612C78.8333 600 78.8333 588 63.5 576C48.1667 564 48.1667 552 63.5 540C78.8333 528 78.8333 516 63.5 504C48.1667 492 48.1667 480 63.5 468C78.8333 456 78.8333 444 63.5 432C48.1667 420 48.1667 408 63.5 396C78.8333 384 78.8333 372 63.5 360C48.1667 348 48.1667 336 63.5 324C78.8333 312 78.8333 300 63.5 288C48.1667 276 48.1667 264 63.5 252C78.8333 240 78.8333 228 63.5 216C48.1667 204 48.1667 192 63.5 180C78.8333 168 78.8333 156 63.5 144C48.1667 132 48.1667 120 63.5 108C78.8333 96 78.8333 84 63.5 72C48.1667 60 48.1667 48 63.5 36C78.8334 24 78.8334 12 63.5 1.92106e-05" stroke="#ffa928" stroke-width="19" stroke-linecap="square"/>
<path d="M23.5 53.6641C23.5 43.3151 30.1038 34.8674 38.6455 28.1826C45.4368 22.8676 46.5 19.315 46.5 17.6641C46.5 16.0131 45.4368 12.4606 38.6455 7.14551L31.1641 1.29004L42.874 -13.6719L50.3545 -7.81738C58.8962 -1.13257 65.5 7.31506 65.5 17.6641C65.5 28.0131 58.8962 36.4607 50.3545 43.1455C43.5632 48.4606 42.5 52.0131 42.5 53.6641C42.5 55.315 43.5632 58.8676 50.3545 64.1826C58.8962 70.8674 65.5 79.3151 65.5 89.6641C65.5 100.013 58.8962 108.461 50.3545 115.146C43.5632 120.461 42.5 124.013 42.5 125.664C42.5 127.315 43.5632 130.868 50.3545 136.183C58.8962 142.867 65.5 151.315 65.5 161.664C65.5 172.013 58.8962 180.461 50.3545 187.146C43.5632 192.461 42.5 196.013 42.5 197.664C42.5 199.315 43.5632 202.868 50.3545 208.183C58.8962 214.867 65.5 223.315 65.5 233.664C65.5 244.013 58.8962 252.461 50.3545 259.146C43.5632 264.461 42.5 268.013 42.5 269.664C42.5 271.315 43.5632 274.868 50.3545 280.183C58.8962 286.867 65.5 295.315 65.5 305.664C65.5 316.013 58.8962 324.461 50.3545 331.146C43.5632 336.461 42.5 340.013 42.5 341.664C42.5 343.315 43.5632 346.868 50.3545 352.183C58.8962 358.867 65.5 367.315 65.5 377.664C65.5 388.013 58.8962 396.461 50.3545 403.146C43.5632 408.461 42.5 412.013 42.5 413.664C42.5 415.315 43.5632 418.868 50.3545 424.183C58.8962 430.867 65.5 439.315 65.5 449.664C65.5 460.013 58.8962 468.461 50.3545 475.146C43.5632 480.46 42.5 484.013 42.5 485.664C42.5 487.315 43.5632 490.868 50.3545 496.183C58.8962 502.867 65.5 511.315 65.5 521.664C65.5 532.013 58.8962 540.461 50.3545 547.146C43.5632 552.46 42.5 556.013 42.5 557.664C42.5 559.315 43.5632 562.868 50.3545 568.183C58.8962 574.867 65.5 583.315 65.5 593.664C65.5 604.013 58.8962 612.461 50.3545 619.146C43.5632 624.46 42.5 628.013 42.5 629.664C42.5 631.315 43.5632 634.868 50.3545 640.183C58.8962 646.867 65.5 655.315 65.5 665.664C65.5 676.013 58.8962 684.461 50.3545 691.146C43.5632 696.46 42.5 700.013 42.5 701.664C42.5 703.315 43.5632 706.868 50.3545 712.183C58.8962 718.867 65.5 727.315 65.5 737.664C65.5 748.013 58.8962 756.461 50.3545 763.146C43.5632 768.46 42.5 772.013 42.5 773.664C42.5 775.315 43.5632 778.868 50.3545 784.183C58.8962 790.867 65.5 799.315 65.5 809.664C65.5 820.013 58.8962 828.461 50.3545 835.146C43.5632 840.46 42.5 844.013 42.5 845.664C42.5 847.315 43.5632 850.868 50.3545 856.183C58.8962 862.867 65.5 871.315 65.5 881.664C65.5 892.013 58.8962 900.461 50.3545 907.146C43.5632 912.46 42.5 916.013 42.5 917.664C42.5 919.315 43.5632 922.868 50.3545 928.183C58.8962 934.867 65.5 943.315 65.5 953.664C65.5 964.013 58.8962 972.461 50.3545 979.146C43.5632 984.461 42.5 988.013 42.5 989.664C42.5 991.315 43.5632 994.868 50.3545 1000.18C58.8962 1006.87 65.5 1015.32 65.5 1025.66C65.5 1036.01 58.8962 1044.46 50.3545 1051.15C43.5632 1056.46 42.5 1060.01 42.5 1061.66C42.5 1063.32 43.5632 1066.87 50.3545 1072.18C58.8962 1078.87 65.5 1087.32 65.5 1097.66C65.5 1108.01 58.8962 1116.46 50.3545 1123.15C43.5632 1128.46 42.5 1132.01 42.5 1133.66C42.5 1135.32 43.5632 1138.87 50.3545 1144.18C58.8962 1150.87 65.5 1159.32 65.5 1169.66C65.5 1180.01 58.8962 1188.46 50.3545 1195.15C43.5632 1200.46 42.5 1204.01 42.5 1205.66C42.5 1207.32 43.5632 1210.87 50.3545 1216.18C58.8962 1222.87 65.5 1231.32 65.5 1241.66C65.5 1252.01 58.8962 1260.46 50.3545 1267.15C43.5632 1272.46 42.5 1276.01 42.5 1277.66C42.5 1279.32 43.5632 1282.87 50.3545 1288.18C58.8962 1294.87 65.5 1303.32 65.5 1313.66C65.5 1324.01 58.8962 1332.46 50.3545 1339.15C43.5632 1344.46 42.5 1348.01 42.5 1349.66C42.5 1351.32 43.5632 1354.87 50.3545 1360.18C58.8962 1366.87 65.5 1375.32 65.5 1385.66C65.5 1396.01 58.8962 1404.46 50.3545 1411.15C43.5632 1416.46 42.5 1420.01 42.5 1421.66C42.5 1423.32 43.5632 1426.87 50.3545 1432.18L57.8359 1438.04L46.126 1453L38.6455 1447.15C30.1038 1440.46 23.5 1432.01 23.5 1421.66C23.5 1411.32 30.1038 1402.87 38.6455 1396.18C45.4368 1390.87 46.5 1387.32 46.5 1385.66C46.5 1384.01 45.4368 1380.46 38.6455 1375.15C30.1038 1368.46 23.5 1360.01 23.5 1349.66C23.5 1339.32 30.1038 1330.87 38.6455 1324.18C45.4368 1318.87 46.5 1315.32 46.5 1313.66C46.5 1312.01 45.4368 1308.46 38.6455 1303.15C30.1038 1296.46 23.5 1288.01 23.5 1277.66C23.5 1267.32 30.1038 1258.87 38.6455 1252.18C45.4368 1246.87 46.5 1243.32 46.5 1241.66C46.5 1240.01 45.4368 1236.46 38.6455 1231.15C30.1038 1224.46 23.5 1216.01 23.5 1205.66C23.5 1195.32 30.1038 1186.87 38.6455 1180.18C45.4368 1174.87 46.5 1171.32 46.5 1169.66C46.5 1168.01 45.4368 1164.46 38.6455 1159.15C30.1038 1152.46 23.5 1144.01 23.5 1133.66C23.5 1123.32 30.1038 1114.87 38.6455 1108.18C45.4368 1102.87 46.5 1099.32 46.5 1097.66C46.5 1096.01 45.4368 1092.46 38.6455 1087.15C30.1038 1080.46 23.5 1072.01 23.5 1061.66C23.5 1051.32 30.1038 1042.87 38.6455 1036.18C45.4368 1030.87 46.5 1027.32 46.5 1025.66C46.5 1024.01 45.4368 1020.46 38.6455 1015.15C30.1038 1008.46 23.5 1000.01 23.5 989.664C23.5 979.315 30.1038 970.867 38.6455 964.183C45.4368 958.868 46.5 955.315 46.5 953.664C46.5 952.013 45.4368 948.461 38.6455 943.146C30.1038 936.461 23.5 928.013 23.5 917.664C23.5 907.315 30.1038 898.867 38.6455 892.183C45.4368 886.868 46.5 883.315 46.5 881.664C46.5 880.013 45.4368 876.46 38.6455 871.146C30.1038 864.461 23.5 856.013 23.5 845.664C23.5 835.315 30.1038 826.867 38.6455 820.183C45.4368 814.868 46.5 811.315 46.5 809.664C46.5 808.013 45.4368 804.46 38.6455 799.146C30.1038 792.461 23.5 784.013 23.5 773.664C23.5 763.315 30.1038 754.867 38.6455 748.183C45.4368 742.868 46.5 739.315 46.5 737.664C46.5 736.013 45.4368 732.46 38.6455 727.146C30.1038 720.461 23.5 712.013 23.5 701.664C23.5 691.315 30.1038 682.867 38.6455 676.183C45.4368 670.868 46.5 667.315 46.5 665.664C46.5 664.013 45.4368 660.46 38.6455 655.146C30.1038 648.461 23.5 640.013 23.5 629.664C23.5 619.315 30.1038 610.867 38.6455 604.183C45.4368 598.868 46.5 595.315 46.5 593.664C46.5 592.013 45.4368 588.46 38.6455 583.146C30.1038 576.461 23.5 568.013 23.5 557.664C23.5 547.315 30.1038 538.867 38.6455 532.183C45.4368 526.868 46.5 523.315 46.5 521.664C46.5 520.013 45.4368 516.46 38.6455 511.146C30.1038 504.461 23.5 496.013 23.5 485.664C23.5 475.315 30.1038 466.867 38.6455 460.183C45.4368 454.868 46.5 451.315 46.5 449.664C46.5 448.013 45.4368 444.46 38.6455 439.146C30.1038 432.461 23.5 424.013 23.5 413.664C23.5 403.315 30.1038 394.867 38.6455 388.183C45.4368 382.868 46.5 379.315 46.5 377.664C46.5 376.013 45.4368 372.461 38.6455 367.146C30.1038 360.461 23.5 352.013 23.5 341.664C23.5 331.315 30.1038 322.867 38.6455 316.183C45.4368 310.868 46.5 307.315 46.5 305.664C46.5 304.013 45.4368 300.461 38.6455 295.146C30.1038 288.461 23.5 280.013 23.5 269.664C23.5 259.315 30.1038 250.867 38.6455 244.183C45.4368 238.868 46.5 235.315 46.5 233.664C46.5 232.013 45.4368 228.461 38.6455 223.146C30.1038 216.461 23.5 208.013 23.5 197.664C23.5 187.315 30.1038 178.867 38.6455 172.183C45.4368 166.868 46.5 163.315 46.5 161.664C46.5 160.013 45.4368 156.461 38.6455 151.146C30.1038 144.461 23.5 136.013 23.5 125.664C23.5 115.315 30.1038 106.867 38.6455 100.183C45.4368 94.8676 46.5 91.315 46.5 89.6641C46.5 88.0131 45.4368 84.4606 38.6455 79.1455C30.1038 72.4607 23.5 64.0131 23.5 53.6641Z" fill="#68F7CC"/>
</g>
</svg>
